<svg width="24" height="26" viewBox="0 0 24 26" fill="none" xmlns="http://www.w3.org/2000/svg">
<path d="M5.43854 0.973633H1.12367V5.35316H5.43854V0.973633Z" fill="#72BF00"/>
<path d="M13.3491 0.973633H9.03427V5.35316H13.3491V0.973633Z" fill="#72BF00"/>
<path d="M21.2597 0.973633H16.9449V5.35316H21.2597V0.973633Z" fill="#72BF00"/>
<path d="M5.43854 9.00269H1.12367V13.3822H5.43854V9.00269Z" fill="#72BF00"/>
<path d="M5.43854 17.032H1.12367V21.4115H5.43854V17.032Z" fill="#72BF00"/>
<path d="M7.59598 23.6012H23.4172V7.54297H7.59598V23.6012ZM16.6104 10.3438H20.6577V14.4518H16.6104V10.3438ZM16.6104 16.7858H20.6577V20.8937H16.6104V16.7858ZM10.4475 10.2505H14.4948V14.3584H10.4475V10.2505ZM10.4475 16.7858H14.4948V20.8937H10.4475V16.7858Z" fill="#BDCCD4"/>
<path d="M14.0683 9.73267H9.75342V14.1122H14.0683V9.73267Z" fill="#03755F"/>
<path d="M20.5406 9.73267H16.2257V14.1122H20.5406V9.73267Z" fill="#03755F"/>
<path d="M14.0683 16.302H9.75342V20.6815H14.0683V16.302Z" fill="#03755F"/>
<path d="M20.5406 16.302H16.2257V20.6815H20.5406V16.302Z" fill="#03755F"/>
</svg>
