<svg width="16" height="16" viewBox="0 0 30 30" fill="none" xmlns="http://www.w3.org/2000/svg">
<path fill-rule="evenodd" clip-rule="evenodd" d="M14.7691 0C14.1067 0 13.5698 0.541876 13.5698 1.20997C13.5698 1.87857 14.1067 2.4202 14.7691 2.4202C15.4316 2.4202 15.9685 1.87857 15.9685 1.20997C15.9685 0.541876 15.4316 0 14.7691 0Z" fill="#6FC100"/>
<path fill-rule="evenodd" clip-rule="evenodd" d="M14.7691 27.3438C14.1067 27.3438 13.5698 27.8856 13.5698 28.554C13.5698 29.2223 14.1067 29.7639 14.7691 29.7639C15.4316 29.7639 15.9685 29.2223 15.9685 28.554C15.9685 27.8856 15.4316 27.3438 14.7691 27.3438Z" fill="#6FC100"/>
<path fill-rule="evenodd" clip-rule="evenodd" d="M24.3592 6.44315C25.022 6.44315 25.5588 5.90127 25.5588 5.23317C25.5588 4.56457 25.022 4.02295 24.3592 4.02295C23.6968 4.02295 23.1599 4.56457 23.1599 5.23317C23.1599 5.90127 23.6968 6.44315 24.3592 6.44315Z" fill="#6FC100"/>
<path fill-rule="evenodd" clip-rule="evenodd" d="M24.3592 23.334C23.6968 23.334 23.1599 23.8759 23.1599 24.5442C23.1599 25.2126 23.6968 25.7542 24.3592 25.7542C25.022 25.7542 25.5588 25.2126 25.5588 24.5442C25.5588 23.8759 25.022 23.334 24.3592 23.334Z" fill="#6FC100"/>
<path fill-rule="evenodd" clip-rule="evenodd" d="M5.18466 23.334C4.52218 23.334 3.98532 23.8759 3.98532 24.5442C3.98532 25.2126 4.52218 25.7542 5.18466 25.7542C5.84713 25.7542 6.38399 25.2126 6.38399 24.5442C6.38399 23.8759 5.84713 23.334 5.18466 23.334Z" fill="#6FC100"/>
<mask id="mask0" mask-type="alpha" maskUnits="userSpaceOnUse" x="0" y="13" width="3" height="4">
<path d="M0 13.6938H2.39887V16.114H0V13.6938Z" fill="white"/>
</mask>
<g mask="url(#mask0)">
<path fill-rule="evenodd" clip-rule="evenodd" d="M2.39886 14.9038C2.39886 14.2355 1.86175 13.6938 1.19952 13.6938C0.537052 13.6938 -6.10352e-05 14.2355 -6.10352e-05 14.9038C-6.10352e-05 15.5722 0.537052 16.114 1.19952 16.114C1.86175 16.114 2.39886 15.5722 2.39886 14.9038Z" fill="#6FC100"/>
</g>
<path fill-rule="evenodd" clip-rule="evenodd" d="M28.341 13.6934C27.6785 13.6934 27.1417 14.2352 27.1417 14.9033C27.1417 15.5719 27.6785 16.1136 28.341 16.1136C29.0035 16.1136 29.5403 15.5719 29.5403 14.9033C29.5403 14.2352 29.0035 13.6934 28.341 13.6934Z" fill="#6FC100"/>
<path fill-rule="evenodd" clip-rule="evenodd" d="M5.18466 6.41092C5.84713 6.41092 6.38399 5.86904 6.38399 5.20069C6.38399 4.53235 5.84713 3.99072 5.18466 3.99072C4.52218 3.99072 3.98532 4.53235 3.98532 5.20069C3.98532 5.86904 4.52218 6.41092 5.18466 6.41092Z" fill="#6FC100"/>
<path fill-rule="evenodd" clip-rule="evenodd" d="M14.7691 4.02295C14.1067 4.02295 13.5698 4.56483 13.5698 5.23317V10.0366H13.571C13.5708 10.0475 13.5698 10.0581 13.5698 10.069C13.5698 10.7374 14.1067 11.279 14.7691 11.279C15.4316 11.279 15.9685 10.7374 15.9685 10.069C15.9685 10.0581 15.9675 10.0475 15.9672 10.0366H15.9685V5.23317C15.9685 4.56483 15.4316 4.02295 14.7691 4.02295Z" fill="#6FC100"/>
<path fill-rule="evenodd" clip-rule="evenodd" d="M14.7691 18.5303C14.1067 18.5303 13.5698 19.0722 13.5698 19.7405V24.5441H13.571C13.5708 24.5548 13.5698 24.5654 13.5698 24.5763C13.5698 25.2447 14.1067 25.7866 14.7691 25.7866C15.4316 25.7866 15.9685 25.2447 15.9685 24.5763C15.9685 24.5654 15.9675 24.5548 15.9672 24.5441H15.9685V19.7405C15.9685 19.0722 15.4316 18.5303 14.7691 18.5303Z" fill="#6FC100"/>
<path fill-rule="evenodd" clip-rule="evenodd" d="M12.3747 13.6948H5.21683V13.6963C5.20603 13.6961 5.19548 13.6948 5.18468 13.6948C4.5222 13.6948 3.98509 14.2367 3.98509 14.9048C3.98509 15.5734 4.5222 16.115 5.18468 16.115C5.19548 16.115 5.20603 16.1138 5.21683 16.1135V16.115H12.3747C13.0374 16.115 13.574 15.5734 13.574 14.9048C13.574 14.2367 13.0374 13.6948 12.3747 13.6948Z" fill="#6FC100"/>
<path fill-rule="evenodd" clip-rule="evenodd" d="M24.3592 16.115C25.022 16.115 25.5588 15.5731 25.5588 14.9048C25.5588 14.2364 25.022 13.6948 24.3592 13.6948H17.2014V13.6963C17.1906 13.6961 17.1801 13.6948 17.1693 13.6948C16.5068 13.6948 15.9697 14.2364 15.9697 14.9048C15.9697 15.5731 16.5068 16.115 17.1693 16.115C17.1801 16.115 17.1906 16.1138 17.2014 16.1135V16.115H24.3592Z" fill="#6FC100"/>
<path fill-rule="evenodd" clip-rule="evenodd" d="M19.5649 11.2792C20.2274 11.2792 20.7642 10.7376 20.7642 10.0692C20.7642 10.0583 20.763 10.0477 20.7627 10.0368H20.7642V2.07692C20.7642 1.40858 20.2274 0.866699 19.5649 0.866699C18.9022 0.866699 18.3653 1.40858 18.3653 2.07692V10.0368H18.3668C18.3666 10.0477 18.3653 10.0583 18.3653 10.0692C18.3653 10.7376 18.9022 11.2792 19.5649 11.2792Z" fill="#6FC100"/>
<path fill-rule="evenodd" clip-rule="evenodd" d="M9.94586 18.5303C9.28338 18.5303 8.74652 19.0722 8.74652 19.7405V27.7004H8.74803C8.74778 27.7113 8.74652 27.7216 8.74652 27.7328C8.74652 28.4009 9.28338 28.9428 9.94586 28.9428C10.6086 28.9428 11.1454 28.4009 11.1454 27.7328C11.1454 27.7216 11.1442 27.7113 11.1439 27.7004H11.1454V19.7405C11.1454 19.0722 10.6086 18.5303 9.94586 18.5303Z" fill="#6FC100"/>
<path fill-rule="evenodd" clip-rule="evenodd" d="M2.05615 11.2469H9.94578V11.2453C9.95658 11.2456 9.96713 11.2469 9.97793 11.2469C10.6404 11.2469 11.1775 10.705 11.1775 10.0366C11.1775 9.36828 10.6404 8.82666 9.97793 8.82666C9.96713 8.82666 9.95658 8.82793 9.94578 8.82818V8.82666H2.05615C1.39367 8.82666 0.856812 9.36828 0.856812 10.0366C0.856812 10.705 1.39367 11.2469 2.05615 11.2469Z" fill="#6FC100"/>
<path fill-rule="evenodd" clip-rule="evenodd" d="M27.4867 18.5303C27.4759 18.5303 27.4654 18.5315 27.4546 18.532V18.5303H19.5649C18.9022 18.5303 18.3651 19.0722 18.3651 19.7405C18.3651 20.4088 18.9022 20.9505 19.5649 20.9505H27.4546V20.9489C27.4654 20.9492 27.4759 20.9505 27.4867 20.9505C28.1492 20.9505 28.6861 20.4088 28.6861 19.7405C28.6861 19.0722 28.1492 18.5303 27.4867 18.5303Z" fill="#6FC100"/>
<path fill-rule="evenodd" clip-rule="evenodd" d="M9.97799 6.44311C10.6405 6.44311 11.1773 5.90123 11.1773 5.23314C11.1773 5.22199 11.1763 5.2116 11.1761 5.2007H11.1773V2.07667C11.1773 1.40832 10.6405 0.866699 9.97799 0.866699C9.31552 0.866699 8.77866 1.40832 8.77866 2.07667V5.2007H8.78016C8.77966 5.2116 8.77866 5.22199 8.77866 5.23314C8.77866 5.90123 9.31552 6.44311 9.97799 6.44311Z" fill="#6FC100"/>
<path fill-rule="evenodd" clip-rule="evenodd" d="M5.18243 20.9485C5.8449 20.9485 6.38177 20.4066 6.38177 19.7383C6.38177 19.0699 5.8449 18.5283 5.18243 18.5283H2.08587V18.5298C2.07507 18.5296 2.06477 18.5283 2.05396 18.5283C1.39124 18.5283 0.854126 19.0699 0.854126 19.7383C0.854126 20.4066 1.39124 20.9485 2.05396 20.9485C2.06477 20.9485 2.07507 20.9472 2.08587 20.9467V20.9485H5.18243Z" fill="#6FC100"/>
<path fill-rule="evenodd" clip-rule="evenodd" d="M24.3583 11.2791C24.3691 11.2791 24.3796 11.2778 24.3904 11.2776V11.2791H27.4867C28.1492 11.2791 28.6863 10.7375 28.6863 10.0691C28.6863 9.40076 28.1492 8.85889 27.4867 8.85889H24.3904V8.86066C24.3796 8.86041 24.3691 8.85889 24.3583 8.85889C23.6955 8.85889 23.1589 9.40076 23.1589 10.0691C23.1589 10.7375 23.6955 11.2791 24.3583 11.2791Z" fill="#6FC100"/>
<path fill-rule="evenodd" clip-rule="evenodd" d="M19.5649 23.334C18.9022 23.334 18.3653 23.8759 18.3653 24.5442C18.3653 24.5551 18.3666 24.5655 18.3668 24.5764H18.3653V27.7004C18.3653 28.3688 18.9022 28.9104 19.5649 28.9104C20.2274 28.9104 20.7642 28.3688 20.7642 27.7004V24.5764H20.7627C20.763 24.5655 20.7642 24.5551 20.7642 24.5442C20.7642 23.8759 20.2274 23.334 19.5649 23.334Z" fill="#6FC100"/>
</svg>
