<svg width="24" height="25" viewBox="0 0 24 25" fill="none" xmlns="http://www.w3.org/2000/svg">
<path d="M9.26964 14.0382L10.4231 12.8494L9.26964 14.0382ZM11.197 16.0258L3.1467 24.3225L1.21931 22.3359L9.26964 14.0382L11.197 16.0258Z" fill="#BDCCD4"/>
<path d="M10.4225 12.8494L12.3499 14.836L10.7783 16.4568L8.85093 14.4692L10.4225 12.8494Z" fill="#03755F"/>
<path d="M12.6827 15.1781L12.6789 15.183L10.087 12.5115L10.0908 12.5066L12.6827 15.1781Z" fill="#BDCCD4"/>
<path d="M13.4541 3.99146L20.9174 11.684L15.1012 17.6798L7.63701 9.98727L13.4541 3.99146Z" fill="#BDCCD4"/>
<path d="M12.2364 1.30151L14.1516 3.27547L7.01113 10.6353L5.09695 8.6613L12.2364 1.30151Z" fill="#72BF00"/>
<path d="M23.527 12.939L16.3866 20.2988L14.4705 18.3249L21.6119 10.9641L23.527 12.939Z" fill="#72BF00"/>
</svg>
